<svg width="12" height="17" viewBox="0 0 12 17" fill="none" xmlns="http://www.w3.org/2000/svg">
<path d="M1.85732 17.0008C1.78428 16.4348 1.71125 15.8736 1.63822 15.3075C1.52411 14.4249 1.41456 13.5423 1.30502 12.6645C1.19547 11.7867 1.08592 10.9136 0.976373 10.0358C0.898777 9.43142 0.83031 8.83181 0.748149 8.22741C0.73902 8.16985 0.702505 8.10269 0.65686 8.05952C-0.0962783 7.28723 -0.214955 6.17916 0.364734 5.25337C0.428636 5.15264 0.428636 5.06629 0.401249 4.96076C0.0771717 3.56968 0.853132 2.25055 2.02164 1.80444C2.12662 1.76607 2.2316 1.7181 2.34115 1.70851C2.50091 1.69891 2.57394 1.59818 2.64241 1.46867C3.46858 -0.123886 5.55454 -0.493242 6.82803 0.725155C6.91019 0.806701 6.97866 0.825889 7.09277 0.792311C8.6173 0.312627 10.2149 1.45907 10.3518 3.13317C10.3609 3.2339 10.3929 3.28667 10.4796 3.32984C11.2921 3.73277 11.7942 4.40433 11.9539 5.33012C12.0863 6.06883 11.9311 6.76438 11.4975 7.36878C11.3606 7.55585 11.3012 7.74773 11.2738 7.96838C11.0776 9.55614 10.8767 11.1439 10.6759 12.7316C10.5024 14.1131 10.3335 15.4898 10.1601 16.8713C10.1555 16.9145 10.1418 16.9577 10.1373 17.0008C7.37577 17.0008 4.61882 17.0008 1.85732 17.0008ZM1.87557 5.45964C1.82537 5.47882 1.79341 5.49321 1.7569 5.50281C1.19547 5.70907 0.944422 6.38543 1.21373 6.94186C1.2685 7.05219 1.3324 7.10975 1.46934 7.10975C4.32213 7.10495 7.17493 7.10495 10.0277 7.10015C10.1236 7.10015 10.2377 7.05698 10.3107 6.99462C10.7352 6.63966 10.9315 6.17916 10.8722 5.59874C10.7991 4.91759 10.297 4.35636 9.658 4.27002C9.43891 4.24124 9.21068 4.26522 8.99615 4.26522C9.49368 3.47374 9.22438 2.57194 8.64925 2.13063C8.17455 1.76607 7.27991 1.62216 6.60893 2.44722C6.32137 1.5742 5.74168 1.07532 4.86074 1.17126C3.93872 1.27679 3.46401 1.91477 3.37272 2.87894C2.66979 2.69666 2.06728 2.86455 1.67017 3.51212C1.26393 4.18847 1.37805 4.85044 1.87557 5.45964ZM6.77325 15.8304C6.96953 13.3073 7.1658 10.7937 7.36207 8.28018C6.44461 8.28018 5.54541 8.28018 4.63252 8.28018C4.82879 10.8033 5.02506 13.3121 5.22133 15.8304C5.74168 15.8304 6.24834 15.8304 6.77325 15.8304ZM1.88014 8.27538C1.8847 8.35213 1.8847 8.40969 1.89383 8.47205C2.03077 9.57532 2.17227 10.6834 2.3092 11.7867C2.46439 13.0003 2.61958 14.2139 2.77021 15.4323C2.82042 15.84 2.81129 15.84 3.20384 15.84C3.50053 15.84 3.80178 15.84 4.11673 15.84C3.92046 13.3025 3.72419 10.7889 3.52791 8.27538C2.97105 8.27538 2.43244 8.27538 1.88014 8.27538ZM8.47124 8.28018C8.27497 10.8033 8.07869 13.3121 7.88242 15.84C8.30235 15.84 8.6949 15.8448 9.08744 15.8352C9.12396 15.8352 9.17873 15.7728 9.1833 15.7297C9.33392 14.564 9.47999 13.3984 9.62605 12.2328C9.76299 11.1583 9.89536 10.0886 10.0323 9.01409C10.0642 8.76945 10.0871 8.52482 10.119 8.27538C9.56215 8.28018 9.02354 8.28018 8.47124 8.28018Z" fill="white"/>
</svg>
