<svg width="19" height="20" viewBox="0 0 19 20" fill="none" xmlns="http://www.w3.org/2000/svg">
<g clip-path="url(#clip0_40_2)" filter="url(#filter0_d_40_2)">
<path d="M15.4839 17H3.51608C2.68913 17 2 16.322 2 15.5085V3.73446C2 2.9209 2.68913 2.24294 3.51608 2.24294H15.4839C16.3109 2.24294 17 2.9209 17 3.73446V15.5085C17 16.322 16.3109 17 15.4839 17ZM3.51608 3.25988C3.24043 3.25988 3.03369 3.46327 3.03369 3.73446V15.5085C3.03369 15.7797 3.24043 15.983 3.51608 15.983H15.4839C15.7596 15.983 15.9663 15.7797 15.9663 15.5085V3.73446C15.9663 3.46327 15.7596 3.25988 15.4839 3.25988H3.51608Z" fill="white"/>
<path d="M16.4717 5.65536H2.50537V6.67231H16.4717V5.65536Z" fill="white"/>
<path d="M7.90354 13.9943C7.78868 13.9943 7.67383 13.9491 7.58194 13.8813C7.42115 13.7684 7.32926 13.565 7.3752 13.3616L7.62789 11.8926L6.54825 10.8531C6.41043 10.7175 6.34151 10.4915 6.41043 10.3107C6.47934 10.1073 6.64014 9.97174 6.84687 9.94915L8.33998 9.72316L9.00614 8.38982C9.09802 8.20903 9.28179 8.09604 9.48853 8.09604C9.69527 8.09604 9.87903 8.20903 9.97092 8.38982L10.6371 9.72316L12.1532 9.94915C12.3599 9.97174 12.5207 10.1073 12.5896 10.3107C12.6585 10.5141 12.6126 10.7175 12.4518 10.8531L11.3721 11.8926L11.6248 13.3616C11.6708 13.565 11.5789 13.7684 11.4181 13.8813C11.2573 13.9943 11.0276 14.0169 10.8438 13.9265L9.48853 13.226L8.13325 13.9265C8.06433 13.9943 7.97245 13.9943 7.90354 13.9943ZM7.97245 10.8079L8.52375 11.3503C8.63861 11.4633 8.70752 11.6441 8.68455 11.8249L8.54672 12.5932L9.23585 12.2316C9.39665 12.1412 9.58041 12.1412 9.74121 12.2316L10.4303 12.5932L10.2925 11.8249C10.2695 11.6441 10.3155 11.4633 10.4533 11.3503L11.0046 10.8079L10.2236 10.6949C10.0628 10.6723 9.902 10.5593 9.81012 10.4011L9.46556 9.70056L9.12099 10.4011C9.05208 10.5593 8.89129 10.6723 8.70752 10.6949L7.97245 10.8079ZM8.22513 9.94915C8.22513 9.97174 8.22513 9.97174 8.22513 9.94915V9.94915ZM10.3844 9.70056C10.4074 9.70056 10.4074 9.70056 10.3844 9.70056V9.70056ZM9.94795 8.8418C9.92498 8.8418 9.94795 8.8418 9.94795 8.8418V8.8418Z" fill="white"/>
<path d="M13.026 4.41243C12.7504 4.41243 12.5207 4.18644 12.5207 3.91525V1.49718C12.5207 1.22599 12.7504 1 13.026 1C13.3017 1 13.5314 1.22599 13.5314 1.49718V3.89266C13.5544 4.18644 13.3246 4.41243 13.026 4.41243Z" fill="white"/>
<path d="M5.95101 4.41243C5.67536 4.41243 5.44565 4.18644 5.44565 3.91525V1.49718C5.44565 1.22599 5.67536 1 5.95101 1C6.22666 1 6.45637 1.22599 6.45637 1.49718V3.89266C6.47934 4.18644 6.24963 4.41243 5.95101 4.41243Z" fill="white"/>
</g>
<defs>
<filter id="filter0_d_40_2" x="0" y="0" width="19" height="20" filterUnits="userSpaceOnUse" color-interpolation-filters="sRGB">
<feFlood flood-opacity="0" result="BackgroundImageFix"/>
<feColorMatrix in="SourceAlpha" type="matrix" values="0 0 0 0 0 0 0 0 0 0 0 0 0 0 0 0 0 0 127 0" result="hardAlpha"/>
<feOffset dy="1"/>
<feGaussianBlur stdDeviation="1"/>
<feColorMatrix type="matrix" values="0 0 0 0 0 0 0 0 0 0 0 0 0 0 0 0 0 0 0.25 0"/>
<feBlend mode="multiply" in2="BackgroundImageFix" result="effect1_dropShadow_40_2"/>
<feBlend mode="normal" in="SourceGraphic" in2="effect1_dropShadow_40_2" result="shape"/>
</filter>
<clipPath id="clip0_40_2">
<rect width="15" height="16" fill="white" transform="translate(2 1)"/>
</clipPath>
</defs>
</svg>
